<svg xmlns="http://www.w3.org/2000/svg" viewBox="0 0 1059.53 1355.83">
    <title>basic-body-1-120</title>
    <g id="Layer_2" data-name="Layer 2">
        <g xmlns="http://www.w3.org/2000/svg" id="basic-accessory-1-10">
            <path id="body-color" d="M793.3,1300.62a28,28,0,0,0-9.66,10.1c-6.73,12.18-3.06,27.13,7.72,35.46,13.13,10.14,30.63,9.17,46.19,7,6.29-.87,12.47-2.18,18.68-3.48,2.77-.58,5.54-1.15,8.32-1.64,1.49-.26,3-.49,4.48-.74a11.18,11.18,0,0,0,1.77-.47c4.94-.82,10.42-.7,15.25-1,5.47-.34,10.94-.57,16.41-.8,15.84-.66,31.93-1.38,47.65-3.92a28.32,28.32,0,0,0,14,1.59,32.53,32.53,0,0,0,6.52-1.58c8.26,3.07,17.51,3.26,26.53,4.14l30.67,3c13.22,1.29,24.51-12.2,24.5-24.5a744.24,744.24,0,0,0-4.31-79.4,772.65,772.65,0,0,0-28.85-142.7C1006.15,1059,991,1013,958.14,981.13c-13.2-12.8-36-7.14-40.95,10.81a277,277,0,0,0-9.54,96.16c.83,10.15,1.53,20.24,6.84,29.2,4.84,8.18,13.59,13.81,22.91,15.75a24.73,24.73,0,0,0-1.45,2.35c-16-2.07-30.75-1.35-46.76.88-11.75,1.63-23.52,3.54-35.14,5.91-15.55,3.17-36.19,8.64-49.75,19.39a33.75,33.75,0,0,0-10.24,8.23c-5.64,7-9.82,15.33-9.47,24.58a32.81,32.81,0,0,0,14.8,26.63,37.23,37.23,0,0,0,15.71,5.56l-.84.26c-8.71.33-17.24,1.76-25,6.32a32.93,32.93,0,0,0-6.31,4.8c-7.09,5.1-12.58,12-14.48,21.29C764.7,1277.47,775.25,1296.8,793.3,1300.62Zm162.48-232.8c.19.47.38.94.56,1.41l-.54.25C955.8,1068.93,955.79,1068.37,955.78,1067.82Z"
                style="fill:#fad2a6" />
            <path d="M795.58,1303.34c-31.6,12.44-13.6,45.44-13.6,45.44l270.5-3.5c2-151-59-327-59-327-29.5-47.5-60.5-47.5-60.5-47.5-48,46-21,146-21,146,29,37,63,6,63,6"
                style="fill:none;stroke:#140400;stroke-miterlimit:10;stroke-width:14px" />
            <path d="M807,1224.78c-47,0-39,48-39,48l14,27c71,8,176,0,176,0" style="fill:none;stroke:#140400;stroke-miterlimit:10;stroke-width:14px"
            />
            <path d="M933.48,1133.13c-53.5-8.35-142.5,24.65-142.5,24.65-21,41,0,65,0,65H958" style="fill:none;stroke:#140400;stroke-miterlimit:10;stroke-width:14px"
            />
            <path id="body-color-2" data-name="body-color" d="M340.56,1256.25c-1.9-9.29-7.39-16.19-14.48-21.29a33.17,33.17,0,0,0-6.3-4.8c-7.81-4.56-16.34-6-25-6.32l-.84-.26a37.33,37.33,0,0,0,15.71-5.56,32.8,32.8,0,0,0,14.79-26.63c.36-9.25-3.82-17.61-9.46-24.58a34,34,0,0,0-10.24-8.23c-13.57-10.75-34.2-16.22-49.75-19.39-11.62-2.37-23.39-4.28-35.14-5.91-16-2.23-30.79-3-46.76-.88a24.73,24.73,0,0,0-1.45-2.35c9.32-1.94,18.07-7.57,22.91-15.75,5.3-9,6-19,6.84-29.2a277.26,277.26,0,0,0-9.54-96.16c-5-18-27.75-23.61-40.95-10.81C118,1010,102.85,1056,89.79,1098.68A772.62,772.62,0,0,0,61,1241.38a741.63,741.63,0,0,0-4.31,79.4c0,12.3,11.28,25.79,24.5,24.5l30.67-3c9-.88,18.27-1.07,26.53-4.14a32.2,32.2,0,0,0,6.52,1.58,28.27,28.27,0,0,0,14-1.59c15.73,2.54,31.82,3.26,47.65,3.92,5.48.23,10.95.46,16.42.8,4.82.3,10.3.18,15.25,1a11,11,0,0,0,1.76.47c1.5.25,3,.48,4.48.74,2.79.49,5.56,1.06,8.33,1.64,6.21,1.3,12.39,2.61,18.67,3.48,15.57,2.15,33.07,3.12,46.19-7,10.79-8.33,14.46-23.28,7.73-35.46a28,28,0,0,0-9.66-10.1C333.75,1293.8,344.29,1274.47,340.56,1256.25ZM153.19,1066.48l-.54-.25.57-1.41Z"
                style="fill:#fad2a6" />
            <path d="M313.42,1303.34C345,1315.78,327,1348.78,327,1348.78l-270.5-3.5c-2-151,59-327,59-327,29.5-47.5,60.5-47.5,60.5-47.5,48,46,21,146,21,146-29,37-63,6-63,6"
                style="fill:none;stroke:#140400;stroke-miterlimit:10;stroke-width:14px" />
            <path d="M302,1228.78c47,0,39,48,39,48l-14,27c-71,8-176,0-176,0" style="fill:none;stroke:#140400;stroke-miterlimit:10;stroke-width:14px"
            />
            <path d="M175.51,1135.13c53.5-8.35,142.5,24.65,142.5,24.65,21,41,0,65,0,65H151" style="fill:none;stroke:#140400;stroke-miterlimit:10;stroke-width:14px"
            />
        </g>
    </g>
</svg>