<svg xmlns="http://www.w3.org/2000/svg" viewBox="0 0 1059.53 1355.83">
    <title>basic-body-1-120</title>
    <g id="Layer_2" data-name="Layer 2">
        <g xmlns="http://www.w3.org/2000/svg" id="basic-cloth-1-100">
            <path d="M919.38,1243.52a49.82,49.82,0,0,0-2.94-7.12c2.47-7.41,3.2-15.51.68-23-1.56-4.6-3-9.35-4.56-14.13-.32-2.16-.66-4.31-1-6.46a94.71,94.71,0,0,0-4.45-19.62c-4.26-11.58-10-22.84-19.54-31-11.07-9.48-26.44-16.9-41.45-15.82-7.8-2.9-16.75-4.15-24.36-1.14-1.69.67-3.4,1.26-5.12,1.81-.5-.29-1-.55-1.46-.79h0c-.68-.43-1.38-.83-2.08-1.22l-.35-.18c-.6-.32-1.21-.62-1.82-.91l-.4-.18c-.73-.33-1.47-.64-2.23-.93l-.06,0q-1.06-.39-2.16-.72l-.56-.16c-.65-.18-1.3-.35-2-.5l-.39-.09c-.78-.17-1.57-.31-2.37-.43l-.54-.07c-.64-.08-1.28-.15-1.93-.21l-.68-.05c-.82,0-1.65-.09-2.49-.09-.61,0-1.22,0-1.82,0l-.61,0c-.41,0-.81.05-1.21.1l-.73.09-1.08.14-.76.14-1,.19-.78.18q-.49.11-1,.24l-.79.21-1,.29-.79.26-.94.32-.79.3-.92.37c-.26.1-.52.21-.77.33l-.91.41-.75.36c-.3.15-.6.3-.89.46s-.5.26-.74.4l-.87.49-.72.43-.86.54-.68.45-.86.6-.64.46c-.3.22-.6.46-.89.69s-.38.28-.56.43q-.71.57-1.38,1.17l-.44.41c-.31.28-.61.55-.9.83s-.39.39-.58.59l-.71.72-.58.64-.64.71-.57.68c-.19.25-.39.48-.59.73l-.54.72-.55.74-.51.75-.51.75-.48.78-.46.77c-.16.27-.31.53-.45.8s-.29.53-.42.79l-.42.83c-.13.27-.25.54-.37.81s-.26.56-.38.84l-.33.83c-.11.29-.23.57-.33.86s-.2.56-.29.84-.2.59-.29.89-.16.57-.24.86-.17.59-.24.89-.13.59-.2.88-.14.6-.19.91-.1.6-.15.9-.11.6-.15.91c-.07.56-.13,1.13-.17,1.7a.22.22,0,0,0,0,.08,39.93,39.93,0,0,0-2.37,9.13,42.77,42.77,0,0,0,1,17.12c0,1.35.11,2.75.25,4.17a55.26,55.26,0,0,0-17.46,10.81,58.07,58.07,0,0,0-8,9.35,164.59,164.59,0,0,1-22,21.47,389.12,389.12,0,0,1-38.83,24.69,34.66,34.66,0,0,0-19.76.54,433.32,433.32,0,0,1-71.49,16.77,437,437,0,0,1-103,0c-23.75-3.63-46.81-9.66-70.08-15.66-4.75-3.28-9.35-6.82-14-10.26-2.28-1.69-4.58-3.35-6.93-4.94-5.86-8.92-13.55-14.42-23.67-18-3.54-1.26-7.07-2.55-10.57-3.91-1.83-.85-3.62-1.75-5.4-2.68-2.72-4.23-5.23-8.59-7.71-13a37.82,37.82,0,0,0-12.69-13.14c-1.08-1.75-2.22-3.47-3.44-5.12a133.06,133.06,0,0,0,2.58-15.65c1-9.13-5.12-22.23-11.71-28.29-7.66-7-17.6-12.11-28.29-11.71q-24.51.91-48.93,3.28c-10,1-20.51,1.3-30,4.52A70,70,0,0,0,194,1139a44.85,44.85,0,0,0-9.43,1.38c-19.59,5.06-30.77,21.63-35.42,40.24a133.66,133.66,0,0,0-1.93,55.6c-1.48,9.77-2.59,19.59-3.36,29.39a312,312,0,0,0,.57,54.33c1.05,10.84,3.76,20.32,11.72,28.28a37.63,37.63,0,0,0,5.2,4.3h58.1c2.14-.54,4.27-1.09,6.42-1.57a112.34,112.34,0,0,1,16.91.44c2.13.35,4.25.74,6.36,1.13H680.63a40.8,40.8,0,0,0,2.23-4.18q22-.55,43.94.5c.25.34.49.67.75,1,.72.93,1.48,1.82,2.27,2.67H843.88c8-.09,16.17-.32,24.25,0h30a30.9,30.9,0,0,0,7.59-3.49c8.21-5.29,16.77-13.84,18.38-23.91C928.51,1297.67,928.09,1270.2,919.38,1243.52Z"
                style="fill:#005173" />
            <path d="M275.13,1129.75a176.64,176.64,0,0,0,14.88,72c4,9,10,16,15,25,8,10,16,18,26,25,4,3,7,7,11,9a29.94,29.94,0,0,1,8,4l3,3a186.46,186.46,0,0,0,20,10c6,2,11,5,17,7,68,23,140,27,211,18h7c75-13,153-43,184-116,4-9,6-18,8-28,2-12,1-23,.5-34.28"
                style="fill:none;stroke:#000;stroke-miterlimit:10;stroke-width:11px" />
            <path d="M315.51,1128.28c-7,139,203,144,203,144,253,5,247-149,247-149h80c70,5,70,75,70,75l7,151h-776l-3-135c-4-86,62-82,62-82Z"
                style="fill:none;stroke:#000;stroke-miterlimit:10;stroke-width:11px" />
        </g>
    </g>
</svg>