<svg xmlns="http://www.w3.org/2000/svg" viewBox="0 0 1059.53 1355.83">
    <title>basic-body-1-120</title>
    <g id="Layer_2" data-name="Layer 2">
        <g xmlns="http://www.w3.org/2000/svg" id="basic-body-1-120">
            <path id="skin-color" d="M146.39,1354.1H911.85a36.32,36.32,0,0,0,6.32-32.21,135.58,135.58,0,0,1-3.37-14.41A133.09,133.09,0,0,1,915,1282a120.78,120.78,0,0,0,1.51-16.38,44.75,44.75,0,0,0,5.07-10.65c2.5-7.74,1.3-15.58-1.32-22.91l.59,1.41a50.21,50.21,0,0,1-2.62-8.78c-1.69-18.4-1.61-36.67-11.77-53.15-9.52-15.45-25.29-27.79-42.91-30.93a39.1,39.1,0,0,0-20.08-1.94c-6.6-3.42-14.09-4.94-21.62-5.46-8.79-.6-17.67-.64-26.47-.79-17.73-.3-35.47.11-53.08,2.4-4.62.6-9.22,1.24-13.79,2-.83-22-15-40.61-29.35-56.36-2.79-3-5.48-6.17-8.19-9.29-.47-.68-1-1.35-1.41-2-1.19-1.85-2.3-3.75-3.31-5.7-.25-.48-.47-1-.7-1.45-.59-1.77-1.25-3.51-1.77-5.3a97,97,0,0,1-2.27-10.07c-1.55-15.58-.48-31.25.47-46.86q1.41-22.86,2.81-45.71a58.57,58.57,0,0,0,10.12-8.39c8.39-8.89,11.4-23.78,4.46-34.54a34.18,34.18,0,0,0-10.23-10.23c-5.53-3.56-15.69-5.24-22-2.87l-7.61,2.88a30.27,30.27,0,0,0-19.86-2q-14.68,3.36-29.59,5.52a361.1,361.1,0,0,1-52.6,2.52c-20.18-.53-39.89-3.92-59.86,1-.38.09-.76.2-1.14.32A33.14,33.14,0,0,0,486,905.87l-87.19-5.4a23.47,23.47,0,0,0-10.48,1.92c-.47-.16-.93-.31-1.42-.43a15.26,15.26,0,0,0-8-.36,14.86,14.86,0,0,0-7.43,2.37l-4.05,3.13a20.1,20.1,0,0,0-5.15,8.83q-.34,2.66-.71,5.31a19.91,19.91,0,0,0,2.73,10.1c.31.52.64,1,1,1.5a61.61,61.61,0,0,0,4,5.08,29,29,0,0,0,4.26,3.64,29.92,29.92,0,0,0,6.38,8.52c.92,3.06,1.67,6.18,2.62,9.24a188.93,188.93,0,0,0,7.19,18.83c-1.36,16.26-2.77,32.52-4.61,48.74q-.79,6.9-1.68,13.79c0,.21-.05.4-.08.57s-.08.58-.14,1c-.33,2.29-.65,4.58-1,6.86a.68.68,0,0,0,0,.14,215.92,215.92,0,0,0-28.74,42.51,235.64,235.64,0,0,0-13.83,32.87,68.74,68.74,0,0,0-2.21,8.69q-2.88-.16-5.73-.42c-10.16-1.93-20-5.1-30.31-6.48-11.81-1.59-22.89-1.06-34.72,0-23.82,2.14-49.34,2-70.85,13.69-22,12-33.8,35.67-38.75,59.26a648.31,648.31,0,0,0-10.21,69.73,622.43,622.43,0,0,0-2.82,72.25A41.43,41.43,0,0,0,146.39,1354.1Z"
                style="fill:#ffd5a7" />
            <path d="M352.51,900.28a1.3,1.3,0,0,0,.07.64c2.19,7.18,43.33,57.07,27.93,127.36-16,73-43,104-43,104h-81c-58,0-110,0-110,110v110"
                style="fill:none;stroke:#000;stroke-miterlimit:10;stroke-width:16px" />
            <path d="M713,900.78c1,4-44,55-28,128s43,104,43,104h81c58,0,110,0,110,110v110" style="fill:none;stroke:#000;stroke-miterlimit:10;stroke-width:16px"
            />
            <line x1="353.01" y1="900.78" x2="713.01" y2="900.78" style="fill:none;stroke:#000;stroke-miterlimit:10;stroke-width:16px"
            />
            <polyline points="921.01 1352.78 919.01 1352.78 149.01 1352.78" style="fill:none;stroke:#000;stroke-miterlimit:10"
            />
        </g>
    </g>
</svg>