<svg xmlns="http://www.w3.org/2000/svg" viewBox="0 0 1059.53 1355.83">
    <title>basic-body-1-120</title>
    <g id="Layer_2" data-name="Layer 2">
        <g xmlns="http://www.w3.org/2000/svg" id="basic-face-2-110">
            <g id="skin-color-2" data-name="skin-color">
                <path id="skin-color-3" data-name="skin-color" d="M1040.47,622.2a37.58,37.58,0,0,0-7.73-16.32c-8.56-12.3-20-18.1-33.94-18.91-28.1-1.64-48.47,20.4-69.6,37.15Q903,644.85,875.52,663.4a49.64,49.64,0,0,0-19.86,28.67c-2.85,11.49-1.56,26.78,4.36,37,9.5,16.37,26.79,25.85,43.62,23.33,9.67.49,19.43-2.67,28-9.42,6.08-1.86,12.38-2.83,18.51-4.57,12-3.41,23.78-8.85,34.85-14.95,10.57-5.81,21.84-13.62,30.15-22.83A71.65,71.65,0,0,0,1030,675a69.6,69.6,0,0,0,10.46-27.26A53.42,53.42,0,0,0,1040.47,622.2Z"
                    style="fill:#ffd5a7" />
                <path id="skin-color-4" data-name="skin-color" d="M179.08,676.94c-6-10.64-15.31-20.71-26.6-23.28-.79-.17-1.55-.4-2.3-.64q-6.59-3.57-13.11-7.46a38.83,38.83,0,0,0-2.8-5.9c-17.57-29.9-44.56-53.76-76.22-60.34-7.82-1.62-15.88-2.44-23.67,0-9.37,2.94-17.26,9.51-23.13,18.15a51.75,51.75,0,0,0-8.76,23.95c-1.23,10.38-.29,23.43,5.28,32.29,7.75,12.3,16,24.13,26,34.19a264.84,264.84,0,0,0,31.88,27.37c8.36,6.11,17,11.63,25.81,16.91,4.5,2.72,9,5.36,13.58,8,7.55,4.38,15.44,9.25,23.79,11.15,11.83,2.69,23.62,2,34.3-5.11,9.23-6.15,18-18.19,20.46-30.26C186.16,703,185.6,688.44,179.08,676.94Z"
                    style="fill:#ffd5a7" />
                <path id="skin-color-5" data-name="skin-color" d="M916.92,413.6a527,527,0,0,0-12.17-52.52c-6.14-21.4-12.21-45.25-26.18-62a53.09,53.09,0,0,0-10.64-9.62C799.66,154.94,670.22,64.16,521.77,64.16c-178.55,0-329.6,131.32-379.79,312.11a434.85,434.85,0,0,0-18.57,80.8c-5.51,43.11-6.66,86.13-6.92,129.61a50.81,50.81,0,0,0,3.73,19,1076.74,1076.74,0,0,0,16.11,168.6q6.25,35.78,15.12,70.87c3.9,15.53,14.88,28,28.8,32.42.32.68.65,1.35,1,2l.4,3.31a48.13,48.13,0,0,0,10.74,20.56c39.39,55.38,96.25,92.3,153.6,120q25.31,12.24,51,23.37c4.28,1.85,8.57,3.76,12.87,5.65,5.57,9.53,14.38,19.19,24.82,21.16l50,9.45c8.29,1.56,16.57,3.25,24.89,4.67,7.13,1.21,14.32,2.54,21.54,2.94,7.47.42,14.93-.93,22.28-2.23,14.9-2.64,29.59-9.09,43.76-14.71,17-6.71,33.6-14.29,50.17-22.15A706,706,0,0,0,802.73,950.73c27.77-23.68,54-48.06,73.46-81C896.73,835,902.77,794.32,907,753.84c3.89-37.17,7.24-74.41,10.85-111.61,3.61-37.36,8.09-74.81,8.8-112.41C927.37,490.91,923.73,451.73,916.92,413.6Z"
                    style="fill:#ffd5a7" />
            </g>
            <g id="face-outline">
                <path d="M907.52,344.44c-21.1-58-51.3-110.16-89.77-154.91s-83.26-79.9-133.14-104.45C633,59.67,578.1,46.78,521.56,46.78s-111.4,12.89-163,38.3c-49.88,24.55-94.68,59.69-133.14,104.45S156.7,286.4,135.6,344.44c-21.85,60.09-32.92,123.91-32.92,189.7q0,23.15,1.84,45.94a6.29,6.29,0,0,1,2.22,3.89c.56,3.7,1.11,7.4,1.71,11.09.67,2.22,1.37,4.42,2,6.64h13a549.79,549.79,0,0,1-4.14-67.56C119.32,471,130,409.67,150.92,352c20.26-55.73,49.27-105.78,86.21-148.77s80-76.73,127.86-100.3c49.59-24.4,102.26-36.77,156.57-36.77s107,12.37,156.57,36.77C726,126.48,769,160.23,806,203.21s66,93,86.2,148.77c21,57.69,31.61,119,31.61,182.16a549.79,549.79,0,0,1-4.14,67.56h13.72c1.56-7.84,3.66-15.58,5.35-23.4q1.69-21.9,1.71-44.16C940.44,468.35,929.36,404.53,907.52,344.44Z"
                />
                <path d="M109,563.15c18,76.07,28,154.71,33.16,233.08,3.4,51.39,23.38,78.84,57.68,116.14,71.48,77.77,166.36,127.51,261.3,159.37,18.94,6.36,42.44,17.37,62.48,17.81,52.83,1.18,118.85-33.3,165.73-58C765,991.74,836.28,934,887.46,859.77c24.19-35.06,14.92-71,18.08-115.28,4.05-56.9,11.56-114.11,24.62-169.39"
                    style="fill:none;stroke:#000;stroke-miterlimit:10;stroke-width:17px" />
                <path d="M926.39,623.7c40.12-62.42,97.12-35.42,97.12-35.42,34.5,29.5,11.47,78.07,11.47,78.07-35,73.43-128,87.49-128,87.49"
                    style="fill:none;stroke:#000;stroke-miterlimit:10;stroke-width:12px" />
                <path d="M122.12,620.7C82,558.28,25,585.28,25,585.28c-34.5,29.5-11.47,78.07-11.47,78.07,35,73.43,128,87.49,128,87.49"
                    style="fill:none;stroke:#000;stroke-miterlimit:10;stroke-width:12px" />
            </g>
        </g>
    </g>
</svg>