<svg xmlns="http://www.w3.org/2000/svg" viewBox="0 0 1059.53 1355.83">
    <title>basic-body-1-120</title>
    <g id="Layer_2" data-name="Layer 2">
        <g xmlns="http://www.w3.org/2000/svg" id="male-hair-1-40">
            <path id="hair-color" d="M983.34,510.57c-5.66-2.39-11.78-3.79-17.67-5.51a19.76,19.76,0,0,0-9.33-.35,120.93,120.93,0,0,0-.36-14.25,48.09,48.09,0,0,0,8-3.32c9.66-5,17-15.23,16.24-26.46A22.87,22.87,0,0,0,972,444.39c3.47-8.57,4.48-18.23,1.58-27a23.25,23.25,0,0,0-7.35-10.61,47,47,0,0,0,1.4-23.07c-1.23-6.88-6.45-11.5-12.62-13.68a20.92,20.92,0,0,0-9.59-22A24.2,24.2,0,0,0,956.16,334c.05-.18.11-.34.16-.51.23-.45.44-.92.64-1.31l1.42-1.39,1.15-.64.6-.13,3.61-.89c12.46-3.05,21.11-17.79,17.12-30.13-4.45-13.74-16.55-19.34-30.14-17.12a45.11,45.11,0,0,0-5.32,1.22,25.81,25.81,0,0,0-15.83-7.83L927.32,269c-.93-2.58-1.82-5.18-2.55-7.84-.11-.41-.54-1.5-.84-2.52,0-.16,0-.36,0-.58,0-1.06,0-2.21,0-3.3l.29-.79c.12-.22.15-.31.1-.27l0-.08c4.34-6.28,6.46-13.18,4.27-21.15s-8.88-15.05-17.11-17.11A50.56,50.56,0,0,0,902,214c-4.52-3-10-4.36-15.28-2.75a36.61,36.61,0,0,0-1-4.84c-5-17.6-16.66-32.24-30.37-44-14-12-29.73-22.37-48-26.42-1.4-.32-2.81-.56-4.23-.74a74.23,74.23,0,0,0-10.54-20.91c-6-8.45-12.34-16.22-20.43-22.71A125.1,125.1,0,0,0,737.3,71.68c-4.53-1.77-10.27-1.83-15.79-.84a425.77,425.77,0,0,0-122-31.4c-10.33-5.67-22.39-9.25-33.33-11.65-18.85-4.15-37.95-8.37-57.13-10.66-18.21-2.18-36.58,1.74-53.66,8-13.79,5-27.14,10.56-41.63,13-16.37,2-33.23,4.11-47,14C360,56.86,353.81,62.16,348.9,68.65c-3.42,1.2-6.8,2.56-10.1,4.07a37.55,37.55,0,0,0-5.94-4.34,47.13,47.13,0,0,0-24-6.89c-13.33-.05-25.15,5.69-35.41,13.63a85.3,85.3,0,0,0-30,43c-19.27,6.4-34,19.08-49.68,31.42-10.75,8.3-20.74,16.92-25.34,30.27-5.53,8.64-9.21,19.29-5.66,29.3-.26.32-.52.63-.76,1a31.18,31.18,0,0,0-36,4.67c-8.5,8-6.23,20.95,2,27.76A192,192,0,0,0,118.43,266l-.5.6c-.77.88-1.57,1.75-2.4,2.58-1.32,1.35-2.74,2.55-4.16,3.79,2.94-2.57-.78.39-2.09,1.16-.89.53-1.82,1-2.74,1.48l-.39.2c-2,.66-4,1.35-6.11,1.86-1.08.26-2.17.46-3.25.7l-1.18.26c-2.13.26-4.29.39-6.44.5-4.79.24-9.58.22-14.38.16-7.8-.09-16.06,5.78-17.84,13.58-1.72,7.59,1,17.24,8.51,20.9a133.27,133.27,0,0,1,20.8,12.86c1.72,1.31,1.86,1.41.42.33l2.74,2.2q2,1.68,4.06,3.38c2.5,2.12,5,4.27,7.42,6.43A212.86,212.86,0,0,0,82.58,378.4c-3,8.61-5.3,17.91-4.61,27.08.37,4.88,1.43,9.67,2,14.52-.12-.67.11,2.67.12,3.26a50.32,50.32,0,0,1-.16,5.35c-.08-.06-.63,3.38-.79,4-.39,1.54-.87,3-1.39,4.54.1-.48-1.41,3-1.73,3.62-.91,1.64-2,3.17-2.89,4.81-6,10.81-5.62,23.69,3.45,32.74a28.22,28.22,0,0,0,19.44,7.78c-.15,1.57-.31,3.14-.48,4.7,0,.21,0,.41-.07.62-6.94-.49-14.73,2.38-17.85,8.94a70.6,70.6,0,0,1-4.07,7.06c-.12.11-.26.24-.43.42L70,511l-.47.49c-1,.66-2,1.36-3,2-1.3.78-2.63,1.42-4,2.11,2.8-1.44.44-.24-1.17.29-12.23,4-19.38,21.38-8.17,30.92a79.25,79.25,0,0,1,7.91,8l0,.06c.44.6.86,1.19,1.28,1.79,1.07,1.55,2.08,3.14,3.06,4.74,3.74,6.13,6.89,12.58,10.06,19,7,14.14,14.53,28.3,26.27,39.15A18.68,18.68,0,0,0,122,623.33c6.27-2.64,12-9.65,11.37-16.9-2.33-26.58-4.67-53.25-3.87-80,.75-25,8.75-51.87.33-76.24a12.63,12.63,0,0,0,.75-2.76q4.48-30.68,7.3-61.53c10.84,3.8,24.92-2.45,25.07-16.91a399.75,399.75,0,0,1,2.75-43.47l.32-2.59c0-.4.11-.79.17-1.19,3.47,6.54,11.88,10.17,18.88,9.23a18.49,18.49,0,0,0,16.05-18.17c.16-23.32-6.87-45.48-15.18-67a17.25,17.25,0,0,0,8.73,5.44c1.41.37,2.81.76,4.2,1.21.39.13,2.21.8,2.42.83.58.26,1.16.54,1.73.83a55,55,0,0,0,4.85,2.75,21.8,21.8,0,0,0,10.3,2.23l1.74,1.61c8,7.6,16.32,14.27,27,17.57,19.9,6.14,32.84-23.88,14.26-33.81l-.44-.26c-.1-.36-1.84-2.68-2.22-3.41-2.07-4-3.7-8.31-5.48-12.48l-9.18-21.51c0-.18,0-.35,0-.52,2.33-2.34,4.73-4.6,7.24-6.76q2.68-1.83,5.49-3.44a18.68,18.68,0,0,0,2.7.67,120.07,120.07,0,0,0,12.77,1.6,93.73,93.73,0,0,0,8.4,4.17,53.86,53.86,0,0,0,17.91,4.33c1.39,1.88,2.85,3.7,4.36,5.44,7.17,8.27,16.1,12.53,26,16.4,8.18,3.18,21.7.86,28.9-3.78,7.82-5,15.46-12.92,17.23-22.42q2.12-11.26,4.22-22.54c.26-1.39.54-2.79.83-4.2a98.77,98.77,0,0,0,12.52,28.52,202,202,0,0,0,14.15,23.41c5.56,7.9,16.43,12.37,25.31,6.64a18.9,18.9,0,0,0,6.64-25.31c-.66-1.24-1.31-2.48-1.94-3.73-.07-.13-.4-.82-.67-1.38-.26-.74-.92-2.44-1-2.71-.12-.42-.24-.86-.35-1.29a8.25,8.25,0,0,0-.08-1.47c.15-1,.38-3,.38-3a55.5,55.5,0,0,0,.93-11,107.84,107.84,0,0,0-2.52-16.25q7.5-3.72,15.18-7.09c1.15-.47,2.31-.91,3.46-1.36a154.19,154.19,0,0,0,11.68,27c6.8,12.37,25,11.64,31.95,0q7.28-12.15,13.45-24.88l6.92.26a24.77,24.77,0,0,0,4.84,4.61l7.91,5.75,4.5,3.28.62.44.2.19c1,.94,2,1.88,3,2.76.29.26.5.43.66.55a1.38,1.38,0,0,1,.08.17c.22.33.44.67.64,1,0,.27,0,.69,0,1.31-1.15,18.51,25.83,24.92,34.47,9.33,3.68-6.63,7.24-13.34,11-19.9.63-1.09,1.29-2.15,2-3.2-.19.34.38-.38,1-1.12a13.75,13.75,0,0,0,1.92-1.65A41.27,41.27,0,0,0,602,177c.23.59.49,1.17.77,1.76,1.07,2.18,2.09,4.4,3.17,6.58.5,1.13.74,1.67.75,1.66.31.77.62,1.54.91,2.32a64.47,64.47,0,0,1,2.1,6.94c.16.69.3,1.38.44,2.08,0,.13,0,.29,0,.53-.07.87.17,2.08.22,3.19,0,.15-.13.61-.27,1.4-.14.63-.3,1.26-.48,1.88-.4.6-.79,1.2-1.17,1.82s-.73,1-.87,1.2c-.43.53-.86,1.06-1.3,1.57-6.29,7.34-7.76,19.05,0,26.16s18.28,6.73,26.16,0a40.66,40.66,0,0,0,11-15.66c1.47-2.58,2.79-5.22,4-7.9a14.86,14.86,0,0,0,3.57-2.81,19.24,19.24,0,0,0,5.42-13.08v-4.42a41.12,41.12,0,0,0,5.86-2.24A58.83,58.83,0,0,0,669,207.4c9.14,15.43,26.06,26.63,44.29,26.87A49,49,0,0,0,740,227c6.22-3.82,12-9.33,17.74-14l15.15-12.21a32,32,0,0,0,14.54,7.48,60.26,60.26,0,0,1,5.86,1.61,81.58,81.58,0,0,1,8.14,4.89,18.93,18.93,0,0,0-2.23,3.6,101.19,101.19,0,0,1-7.71,13.11c-.87.94-1.68,2-2.55,2.91-1.93,2.06-4,4-6.07,5.88-9.6,8.55-9.37,26,0,34.65,10.24,9.41,24.4,9.12,34.64,0a102.4,102.4,0,0,0,19.41-23.34c.83.33,1.67.61,2.52.87,0,.83,0,1.67,0,2.51,0,.58,0,1.16-.08,1.74-.23,2.44-.19,2.31.13-.41.17,1.51-.78,3.67-1.15,5.08a21.93,21.93,0,0,0,1.92,15.6c-.24,1-.5,2-.75,3A107.32,107.32,0,0,0,837,294.79a71.16,71.16,0,0,0,1.51,21.56,18.87,18.87,0,0,0,.93,4c3.23,9.1,12.77,16.15,22.76,12.92,8.73-2.83,14.35-10.95,13.41-19.91,0-.31.07-.63.08-1a41.64,41.64,0,0,0,6.49,7.07l2.14,48.34c.46,10.41,7.24,21.18,18,23.63a27.15,27.15,0,0,0,2.82.46l-.47,1.67a21,21,0,0,0,7.07,21.69,32.34,32.34,0,0,0-4,14.87,27.2,27.2,0,0,0,9.74,21.06,35.83,35.83,0,0,0-2.89,8,29.38,29.38,0,0,0-.64,8.38,26.86,26.86,0,0,0-3.69,13.15,25.38,25.38,0,0,0,1.28,8.61c.29.83,2,3.63,2.94,5.65l-.13-.94a2.92,2.92,0,0,1,.3,1.34A3.13,3.13,0,0,1,915,497l-.36-1c0,.13,0,.26,0,.39l-.09-.67q-.74-2.07.09.69c-.06,1.33-.31,2.8-.34,3.61a106.92,106.92,0,0,0,.15,12c1.27,16.71,4.43,32.64,2.79,49.49-.06.63-.38,3.15-.43,3.69-.21,1.35-.41,2.71-.64,4.06-.77,4.44-1.69,8.85-2.69,13.24-1.86,8.18-4,16.27-6.21,24.37a21.06,21.06,0,0,0,12.16,24.77c10.13,4.28,20.11.07,26.22-8.59,13-18.38,26.61-36.46,38.84-55.34,6.42-9.9,13.35-22,14-34C999,523.38,992.55,514.46,983.34,510.57Z"
            />
            <path d="M541.62,16C567,21.78,591,31.78,614,43.78c32,2,62,14,92,27,2,1,5-1,7-1,45-11,78,27,97,62,40,4,65,42,77,78,19,3,38,6,55.5,11.5,0,0-12.94-2.77,0,0-.5.5-.5,1.5-1.5,1.5-1,1-3,1-4,1-4,1-6,5-9,7-15,16,1,39,14,51,26-2,53,11,65.5,33.5h0c-1.5-4.5-5.5-5.5-8.5-8.5a18.54,18.54,0,0,0-7-2c-4-1-8,1-12,2-3,2-7,3-10,6s-6,5-9,8c-7,8-11,17-18,25v2c5,6,10,10,13,17l3,3c1,1,0,3,1,4,10,18,12,41,5,61,0,2-1,4,0,5,5,6,8,12,12,18,2,3,2,7,3,11,3,17-14,26-29,27v3c8,23,37,23,56.5,19.5,0,.09-14.89,2.81,0,0-.5.5-.5.5-.5,1.5-1,3-3,5-5,7-8,17-18,33-28,50-2,4-3,7-5,11-3,5-5,9-9,13-15,14-29,28-42.5,42.5,0-.21,6.78-6.92,0,0-.5-53.5-.5-106.5-2.5-159.5-1-33-3-65-5.54-97.83l-1-15.67a10.4,10.4,0,0,1,0,2.16c-.85,13.32-16.36,21.57-27,25.84.33-.4,10.69-4.27,0,0,4.5-7.5.5-15.5.35-23.83-2.54-25.58-7.41-51-12.35-76.17l-1.62,6.38-11.38,44.62c-1.32-1.3,3.8-14.87,0,0-4.5-6.5-8.5-11.5-11.5-18.5-8-23-7-49,2.5-72.5-.34.21-6.5,18.32,0,0-4.5,2.5-8.5,5.5-12.5,7.5-14,7-28,14-44,17-6,1-14,0-16-7-1-2,0-5,1-7,6-9,10-17,16-26,4-6,6-13,10-19v-3c-11-13-30-12-44-6a79.65,79.65,0,0,0-17,15,46.74,46.74,0,0,1-41,11c-24-4-37-29-41.5-51.5-.33,2.25,3.64,15.29,0,0-3.5,32.5-32.5,56.5-64,61,0-.06,17.85-2.51,0,0,1.5-1.5,1.5-4.5,2.5-5.5,8-11,12-23,14-36,2-16-8-34-25-36-6,11-12,22-20,33-3,5-5,10-8.5,14.5-.1-.63,4.51-7.45,0,0-2.5-9.5-3.5-18.5-7.34-26.86L516,164.36c-10.65-3.58-17.65,9.42-21.65,17.42-4,10-6,20-8.51,30.5-4.51-7.45.36-2.17,0,0-3.5-3.5-5.51-9.5-8.51-14.5-8-11-14-22-20-33-17,2-27,20-25,36,2,15,9,28,16.51,41.5-17.86-2.51,0-.06,0,0-31.52-3.5-58.54-29.5-64.05-61-3.63,15.29.34,2.25,0,0-5.5,22.5-16.51,48.5-41.53,52.5-15,2-30-2-41-12a79.7,79.7,0,0,0-17-15c-14-6-33-7-44,6v3c4,6,6,13,10,19,6,9,10,17,16,26,1,2,2,5,1,7-2,7-10,8-16,7-21-4-39-14-56.55-24.5,6.51,18.32.35.21,0,0,8.51,29.5,14.51,66.5-9,91-3.8-14.87,1.32-1.3,0,0-4.51-17.5-8.51-34.5-13-51-4.94,25.2.54,2.13,0,0-5.51,27.5-10.51,56.5-13.51,85.5,0,5,0,9,1.5,14.5-10.7-4.27-.33-.4,0,0-12.51-5.5-27.52-13.5-27-28-.32,5.22-.1.72,0,0-1.5,38.5-6.51,77.5-7.51,116.5-1,52,0,104-1.5,156.5-6.78-6.92,0-.21,0,0-14.51-14.5-27.52-28.5-42.53-42.5-4-4-6-8-9-13-2-4-3-7-5-11-10-17-19-33-29-50-1-3-3-6-4.51-8.5,14.91,2.81.05.09,0,0,19.52,5.5,48.54,3.5,56.55-19.5v-3c-15-1-32-10-29-27,1-4,1-8,3-11,4-6,7-12,12-18,1-1,0-3,0-5-7-20-5-43,5-61,1-1,0-3,1-4l3-3c3-7,8-11,13-17v-2c-7-8-11-17-18-25-3-3-6-5-9-8s-7-4-10-6c-4-1-8-3-12-2a18.54,18.54,0,0,0-7,2c-3,3-6,5-8.51,8.5,7.46-13.19.15-.24,0,0,12.51-23.5,39.53-35.5,65.55-33.5,13-12,29-35,14-51-3-2-5-6-9-7-1,0-3,0-4-1l-1.5-1.5c13.12-2.81,0,0,0,0,19.52-2.5,36.53-8.5,55.54-11.5,2-1,2-3,2-6a48.75,48.75,0,0,0,3-7c0-1,1-2,2-3,0-1,0-3,1-4,13-27,35-56,67-57a7.58,7.58,0,0,0,4-2c15-29,37-57,71.06-63,11-1,21,1,31,3,19-8,37-17,58-21,1,0,3-2,4-2a107,107,0,0,1,25-3c3,0,5-1,8-2,23-12,47-23,71.88-27.15Z"
                style="fill:none;stroke:#000;stroke-miterlimit:10;stroke-width:19px" />
        </g>
    </g>
</svg>