<svg xmlns="http://www.w3.org/2000/svg" viewBox="0 0 1059.53 1355.83">
    <title>zack01</title>
    <g id="Layer_2" data-name="Layer 2">
        <g id="basic-body-1-120">
            <path id="skin-color" d="M146.39,1354.1H911.85a36.32,36.32,0,0,0,6.32-32.21,135.58,135.58,0,0,1-3.37-14.41A133.09,133.09,0,0,1,915,1282a120.78,120.78,0,0,0,1.51-16.38,44.75,44.75,0,0,0,5.07-10.65c2.5-7.74,1.3-15.58-1.32-22.91l.59,1.41a50.21,50.21,0,0,1-2.62-8.78c-1.69-18.4-1.61-36.67-11.77-53.15-9.52-15.45-25.29-27.79-42.91-30.93a39.1,39.1,0,0,0-20.08-1.94c-6.6-3.42-14.09-4.94-21.62-5.46-8.79-.6-17.67-.64-26.47-.79-17.73-.3-35.47.11-53.08,2.4-4.62.6-9.22,1.24-13.79,2-.83-22-15-40.61-29.35-56.36-2.79-3-5.48-6.17-8.19-9.29-.47-.68-1-1.35-1.41-2-1.19-1.85-2.3-3.75-3.31-5.7-.25-.48-.47-1-.7-1.45-.59-1.77-1.25-3.51-1.77-5.3a97,97,0,0,1-2.27-10.07c-1.55-15.58-.48-31.25.47-46.86q1.41-22.86,2.81-45.71a58.57,58.57,0,0,0,10.12-8.39c8.39-8.89,11.4-23.78,4.46-34.54a34.18,34.18,0,0,0-10.23-10.23c-5.53-3.56-15.69-5.24-22-2.87l-7.61,2.88a30.27,30.27,0,0,0-19.86-2q-14.68,3.36-29.59,5.52a361.1,361.1,0,0,1-52.6,2.52c-20.18-.53-39.89-3.92-59.86,1-.38.09-.76.2-1.14.32A33.14,33.14,0,0,0,486,905.87l-87.19-5.4a23.47,23.47,0,0,0-10.48,1.92c-.47-.16-.93-.31-1.42-.43a15.26,15.26,0,0,0-8-.36,14.86,14.86,0,0,0-7.43,2.37l-4.05,3.13a20.1,20.1,0,0,0-5.15,8.83q-.34,2.66-.71,5.31a19.91,19.91,0,0,0,2.73,10.1c.31.52.64,1,1,1.5a61.61,61.61,0,0,0,4,5.08,29,29,0,0,0,4.26,3.64,29.92,29.92,0,0,0,6.38,8.52c.92,3.06,1.67,6.18,2.62,9.24a188.93,188.93,0,0,0,7.19,18.83c-1.36,16.26-2.77,32.52-4.61,48.74q-.79,6.9-1.68,13.79c0,.21-.05.4-.08.57s-.08.58-.14,1c-.33,2.29-.65,4.58-1,6.86a.68.68,0,0,0,0,.14,215.92,215.92,0,0,0-28.74,42.51,235.64,235.64,0,0,0-13.83,32.87,68.74,68.74,0,0,0-2.21,8.69q-2.88-.16-5.73-.42c-10.16-1.93-20-5.1-30.31-6.48-11.81-1.59-22.89-1.06-34.72,0-23.82,2.14-49.34,2-70.85,13.69-22,12-33.8,35.67-38.75,59.26a648.31,648.31,0,0,0-10.21,69.73,622.43,622.43,0,0,0-2.82,72.25A41.43,41.43,0,0,0,146.39,1354.1Z"
                style="fill:#ffd5a7" />
            <path d="M352.51,900.28a1.3,1.3,0,0,0,.07.64c2.19,7.18,43.33,57.07,27.93,127.36-16,73-43,104-43,104h-81c-58,0-110,0-110,110v110"
                style="fill:none;stroke:#000;stroke-miterlimit:10;stroke-width:16px" />
            <path d="M713,900.78c1,4-44,55-28,128s43,104,43,104h81c58,0,110,0,110,110v110" style="fill:none;stroke:#000;stroke-miterlimit:10;stroke-width:16px"
            />
            <line x1="353.01" y1="900.78" x2="713.01" y2="900.78" style="fill:none;stroke:#000;stroke-miterlimit:10;stroke-width:16px"
            />
            <polyline points="921.01 1352.78 919.01 1352.78 149.01 1352.78" style="fill:none;stroke:#000;stroke-miterlimit:10"
            />
        </g>
        <g id="basic-face-2-110">
            <g id="skin-color-2" data-name="skin-color">
                <path id="skin-color-3" data-name="skin-color" d="M1040.47,622.2a37.58,37.58,0,0,0-7.73-16.32c-8.56-12.3-20-18.1-33.94-18.91-28.1-1.64-48.47,20.4-69.6,37.15Q903,644.85,875.52,663.4a49.64,49.64,0,0,0-19.86,28.67c-2.85,11.49-1.56,26.78,4.36,37,9.5,16.37,26.79,25.85,43.62,23.33,9.67.49,19.43-2.67,28-9.42,6.08-1.86,12.38-2.83,18.51-4.57,12-3.41,23.78-8.85,34.85-14.95,10.57-5.81,21.84-13.62,30.15-22.83A71.65,71.65,0,0,0,1030,675a69.6,69.6,0,0,0,10.46-27.26A53.42,53.42,0,0,0,1040.47,622.2Z"
                    style="fill:#ffd5a7" />
                <path id="skin-color-4" data-name="skin-color" d="M179.08,676.94c-6-10.64-15.31-20.71-26.6-23.28-.79-.17-1.55-.4-2.3-.64q-6.59-3.57-13.11-7.46a38.83,38.83,0,0,0-2.8-5.9c-17.57-29.9-44.56-53.76-76.22-60.34-7.82-1.62-15.88-2.44-23.67,0-9.37,2.94-17.26,9.51-23.13,18.15a51.75,51.75,0,0,0-8.76,23.95c-1.23,10.38-.29,23.43,5.28,32.29,7.75,12.3,16,24.13,26,34.19a264.84,264.84,0,0,0,31.88,27.37c8.36,6.11,17,11.63,25.81,16.91,4.5,2.72,9,5.36,13.58,8,7.55,4.38,15.44,9.25,23.79,11.15,11.83,2.69,23.62,2,34.3-5.11,9.23-6.15,18-18.19,20.46-30.26C186.16,703,185.6,688.44,179.08,676.94Z"
                    style="fill:#ffd5a7" />
                <path id="skin-color-5" data-name="skin-color" d="M916.92,413.6a527,527,0,0,0-12.17-52.52c-6.14-21.4-12.21-45.25-26.18-62a53.09,53.09,0,0,0-10.64-9.62C799.66,154.94,670.22,64.16,521.77,64.16c-178.55,0-329.6,131.32-379.79,312.11a434.85,434.85,0,0,0-18.57,80.8c-5.51,43.11-6.66,86.13-6.92,129.61a50.81,50.81,0,0,0,3.73,19,1076.74,1076.74,0,0,0,16.11,168.6q6.25,35.78,15.12,70.87c3.9,15.53,14.88,28,28.8,32.42.32.68.65,1.35,1,2l.4,3.31a48.13,48.13,0,0,0,10.74,20.56c39.39,55.38,96.25,92.3,153.6,120q25.31,12.24,51,23.37c4.28,1.85,8.57,3.76,12.87,5.65,5.57,9.53,14.38,19.19,24.82,21.16l50,9.45c8.29,1.56,16.57,3.25,24.89,4.67,7.13,1.21,14.32,2.54,21.54,2.94,7.47.42,14.93-.93,22.28-2.23,14.9-2.64,29.59-9.09,43.76-14.71,17-6.71,33.6-14.29,50.17-22.15A706,706,0,0,0,802.73,950.73c27.77-23.68,54-48.06,73.46-81C896.73,835,902.77,794.32,907,753.84c3.89-37.17,7.24-74.41,10.85-111.61,3.61-37.36,8.09-74.81,8.8-112.41C927.37,490.91,923.73,451.73,916.92,413.6Z"
                    style="fill:#ffd5a7" />
            </g>
            <g id="face-outline">
                <path d="M907.52,344.44c-21.1-58-51.3-110.16-89.77-154.91s-83.26-79.9-133.14-104.45C633,59.67,578.1,46.78,521.56,46.78s-111.4,12.89-163,38.3c-49.88,24.55-94.68,59.69-133.14,104.45S156.7,286.4,135.6,344.44c-21.85,60.09-32.92,123.91-32.92,189.7q0,23.15,1.84,45.94a6.29,6.29,0,0,1,2.22,3.89c.56,3.7,1.11,7.4,1.71,11.09.67,2.22,1.37,4.42,2,6.64h13a549.79,549.79,0,0,1-4.14-67.56C119.32,471,130,409.67,150.92,352c20.26-55.73,49.27-105.78,86.21-148.77s80-76.73,127.86-100.3c49.59-24.4,102.26-36.77,156.57-36.77s107,12.37,156.57,36.77C726,126.48,769,160.23,806,203.21s66,93,86.2,148.77c21,57.69,31.61,119,31.61,182.16a549.79,549.79,0,0,1-4.14,67.56h13.72c1.56-7.84,3.66-15.58,5.35-23.4q1.69-21.9,1.71-44.16C940.44,468.35,929.36,404.53,907.52,344.44Z"
                />
                <path d="M109,563.15c18,76.07,28,154.71,33.16,233.08,3.4,51.39,23.38,78.84,57.68,116.14,71.48,77.77,166.36,127.51,261.3,159.37,18.94,6.36,42.44,17.37,62.48,17.81,52.83,1.18,118.85-33.3,165.73-58C765,991.74,836.28,934,887.46,859.77c24.19-35.06,14.92-71,18.08-115.28,4.05-56.9,11.56-114.11,24.62-169.39"
                    style="fill:none;stroke:#000;stroke-miterlimit:10;stroke-width:17px" />
                <path d="M926.39,623.7c40.12-62.42,97.12-35.42,97.12-35.42,34.5,29.5,11.47,78.07,11.47,78.07-35,73.43-128,87.49-128,87.49"
                    style="fill:none;stroke:#000;stroke-miterlimit:10;stroke-width:12px" />
                <path d="M122.12,620.7C82,558.28,25,585.28,25,585.28c-34.5,29.5-11.47,78.07-11.47,78.07,35,73.43,128,87.49,128,87.49"
                    style="fill:none;stroke:#000;stroke-miterlimit:10;stroke-width:12px" />
            </g>
        </g>
        <g id="basic-cloth-1-100">
            <path d="M919.38,1243.52a49.82,49.82,0,0,0-2.94-7.12c2.47-7.41,3.2-15.51.68-23-1.56-4.6-3-9.35-4.56-14.13-.32-2.16-.66-4.31-1-6.46a94.71,94.71,0,0,0-4.45-19.62c-4.26-11.58-10-22.84-19.54-31-11.07-9.48-26.44-16.9-41.45-15.82-7.8-2.9-16.75-4.15-24.36-1.14-1.69.67-3.4,1.26-5.12,1.81-.5-.29-1-.55-1.46-.79h0c-.68-.43-1.38-.83-2.08-1.22l-.35-.18c-.6-.32-1.21-.62-1.82-.91l-.4-.18c-.73-.33-1.47-.64-2.23-.93l-.06,0q-1.06-.39-2.16-.72l-.56-.16c-.65-.18-1.3-.35-2-.5l-.39-.09c-.78-.17-1.57-.31-2.37-.43l-.54-.07c-.64-.08-1.28-.15-1.93-.21l-.68-.05c-.82,0-1.65-.09-2.49-.09-.61,0-1.22,0-1.82,0l-.61,0c-.41,0-.81.05-1.21.1l-.73.09-1.08.14-.76.14-1,.19-.78.18q-.49.11-1,.24l-.79.21-1,.29-.79.26-.94.32-.79.3-.92.37c-.26.1-.52.21-.77.33l-.91.41-.75.36c-.3.15-.6.3-.89.46s-.5.26-.74.4l-.87.49-.72.43-.86.54-.68.45-.86.6-.64.46c-.3.22-.6.46-.89.69s-.38.28-.56.43q-.71.57-1.38,1.17l-.44.41c-.31.28-.61.55-.9.83s-.39.39-.58.59l-.71.72-.58.64-.64.71-.57.68c-.19.25-.39.48-.59.73l-.54.72-.55.74-.51.75-.51.75-.48.78-.46.77c-.16.27-.31.53-.45.8s-.29.53-.42.79l-.42.83c-.13.27-.25.54-.37.81s-.26.56-.38.84l-.33.83c-.11.29-.23.57-.33.86s-.2.56-.29.84-.2.59-.29.89-.16.57-.24.86-.17.59-.24.89-.13.59-.2.88-.14.6-.19.91-.1.6-.15.9-.11.6-.15.91c-.07.56-.13,1.13-.17,1.7a.22.22,0,0,0,0,.08,39.93,39.93,0,0,0-2.37,9.13,42.77,42.77,0,0,0,1,17.12c0,1.35.11,2.75.25,4.17a55.26,55.26,0,0,0-17.46,10.81,58.07,58.07,0,0,0-8,9.35,164.59,164.59,0,0,1-22,21.47,389.12,389.12,0,0,1-38.83,24.69,34.66,34.66,0,0,0-19.76.54,433.32,433.32,0,0,1-71.49,16.77,437,437,0,0,1-103,0c-23.75-3.63-46.81-9.66-70.08-15.66-4.75-3.28-9.35-6.82-14-10.26-2.28-1.69-4.58-3.35-6.93-4.94-5.86-8.92-13.55-14.42-23.67-18-3.54-1.26-7.07-2.55-10.57-3.91-1.83-.85-3.62-1.75-5.4-2.68-2.72-4.23-5.23-8.59-7.71-13a37.82,37.82,0,0,0-12.69-13.14c-1.08-1.75-2.22-3.47-3.44-5.12a133.06,133.06,0,0,0,2.58-15.65c1-9.13-5.12-22.23-11.71-28.29-7.66-7-17.6-12.11-28.29-11.71q-24.51.91-48.93,3.28c-10,1-20.51,1.3-30,4.52A70,70,0,0,0,194,1139a44.85,44.85,0,0,0-9.43,1.38c-19.59,5.06-30.77,21.63-35.42,40.24a133.66,133.66,0,0,0-1.93,55.6c-1.48,9.77-2.59,19.59-3.36,29.39a312,312,0,0,0,.57,54.33c1.05,10.84,3.76,20.32,11.72,28.28a37.63,37.63,0,0,0,5.2,4.3h58.1c2.14-.54,4.27-1.09,6.42-1.57a112.34,112.34,0,0,1,16.91.44c2.13.35,4.25.74,6.36,1.13H680.63a40.8,40.8,0,0,0,2.23-4.18q22-.55,43.94.5c.25.34.49.67.75,1,.72.93,1.48,1.82,2.27,2.67H843.88c8-.09,16.17-.32,24.25,0h30a30.9,30.9,0,0,0,7.59-3.49c8.21-5.29,16.77-13.84,18.38-23.91C928.51,1297.67,928.09,1270.2,919.38,1243.52Z"
                style="fill:#005173" />
            <path d="M275.13,1129.75a176.64,176.64,0,0,0,14.88,72c4,9,10,16,15,25,8,10,16,18,26,25,4,3,7,7,11,9a29.94,29.94,0,0,1,8,4l3,3a186.46,186.46,0,0,0,20,10c6,2,11,5,17,7,68,23,140,27,211,18h7c75-13,153-43,184-116,4-9,6-18,8-28,2-12,1-23,.5-34.28"
                style="fill:none;stroke:#000;stroke-miterlimit:10;stroke-width:11px" />
            <path d="M315.51,1128.28c-7,139,203,144,203,144,253,5,247-149,247-149h80c70,5,70,75,70,75l7,151h-776l-3-135c-4-86,62-82,62-82Z"
                style="fill:none;stroke:#000;stroke-miterlimit:10;stroke-width:11px" />
        </g>
        <g id="basic-mouth-1-80">
            <path d="M372.51,875.28c32-10,341,0,341,0" style="fill:none;stroke:#000;stroke-miterlimit:10;stroke-width:11px" />
        </g>
        <g id="basic-nose-1-70">
            <path d="M580.51,497.28c-12,62,47,213,47,213,24,12,29,31,29,31-5,48-56,44-56,44-20,12-79,0-79,0-57-1-67-23-67-23,1-38,18-45,18-45"
                style="fill:none;stroke:#000;stroke-miterlimit:10;stroke-width:10px" />
        </g>
        <g id="basic-eye-1-60">
            <path d="M656.51,578.55c38.22-77.91,143.06-59,198-16C810.66,629.7,704.3,651,656.51,578.55Z" style="fill:#fff;stroke:#000;stroke-miterlimit:10;stroke-width:9px"
            />
            <path d="M647.39,565.25c42.12-81.32,126.28-80.27,197.8-41.15" style="fill:none;stroke:#000;stroke-miterlimit:10;stroke-width:9px"
            />
            <circle cx="746.51" cy="574.51" r="43" style="fill:#70abe2;stroke:#000;stroke-miterlimit:10;stroke-width:9px"
            />
            <path d="M414.39,578.55c-38.22-77.91-143-59-198-16C260.24,629.7,366.6,651,414.39,578.55Z" style="fill:#fff;stroke:#000;stroke-miterlimit:10;stroke-width:9px"
            />
            <path d="M423.51,564.25C381.39,482.93,297.23,484,225.71,523.1" style="fill:none;stroke:#000;stroke-miterlimit:10;stroke-width:9px"
            />
            <circle cx="323.39" cy="574.51" r="43" style="fill:#70abe2;stroke:#000;stroke-miterlimit:10;stroke-width:9px"
            />
        </g>
        <g id="basic-eyebrow-1-50">
            <path d="M616,461.28c83.25-21,246.28-12,246.28-12,31.22,0,42.78,12,42.78,12l-27.75-43c-37-22-238.18,0-238.18,0l-40.47,7Z"
                style="stroke:#000;stroke-miterlimit:10;stroke-width:4px" />
            <path d="M453.08,461.28c-83.25-21-246.28-12-246.28-12-31.22,0-42.79,12-42.79,12l27.75-43c37-22,238.19,0,238.19,0l40.47,7Z"
                style="stroke:#000;stroke-miterlimit:10;stroke-width:4px" />
        </g>
        <g id="male-hair-1-40">
            <path id="hair-color" d="M983.34,510.57c-5.66-2.39-11.78-3.79-17.67-5.51a19.76,19.76,0,0,0-9.33-.35,120.93,120.93,0,0,0-.36-14.25,48.09,48.09,0,0,0,8-3.32c9.66-5,17-15.23,16.24-26.46A22.87,22.87,0,0,0,972,444.39c3.47-8.57,4.48-18.23,1.58-27a23.25,23.25,0,0,0-7.35-10.61,47,47,0,0,0,1.4-23.07c-1.23-6.88-6.45-11.5-12.62-13.68a20.92,20.92,0,0,0-9.59-22A24.2,24.2,0,0,0,956.16,334c.05-.18.11-.34.16-.51.23-.45.44-.92.64-1.31l1.42-1.39,1.15-.64.6-.13,3.61-.89c12.46-3.05,21.11-17.79,17.12-30.13-4.45-13.74-16.55-19.34-30.14-17.12a45.11,45.11,0,0,0-5.32,1.22,25.81,25.81,0,0,0-15.83-7.83L927.32,269c-.93-2.58-1.82-5.18-2.55-7.84-.11-.41-.54-1.5-.84-2.52,0-.16,0-.36,0-.58,0-1.06,0-2.21,0-3.3l.29-.79c.12-.22.15-.31.1-.27l0-.08c4.34-6.28,6.46-13.18,4.27-21.15s-8.88-15.05-17.11-17.11A50.56,50.56,0,0,0,902,214c-4.52-3-10-4.36-15.28-2.75a36.61,36.61,0,0,0-1-4.84c-5-17.6-16.66-32.24-30.37-44-14-12-29.73-22.37-48-26.42-1.4-.32-2.81-.56-4.23-.74a74.23,74.23,0,0,0-10.54-20.91c-6-8.45-12.34-16.22-20.43-22.71A125.1,125.1,0,0,0,737.3,71.68c-4.53-1.77-10.27-1.83-15.79-.84a425.77,425.77,0,0,0-122-31.4c-10.33-5.67-22.39-9.25-33.33-11.65-18.85-4.15-37.95-8.37-57.13-10.66-18.21-2.18-36.58,1.74-53.66,8-13.79,5-27.14,10.56-41.63,13-16.37,2-33.23,4.11-47,14C360,56.86,353.81,62.16,348.9,68.65c-3.42,1.2-6.8,2.56-10.1,4.07a37.55,37.55,0,0,0-5.94-4.34,47.13,47.13,0,0,0-24-6.89c-13.33-.05-25.15,5.69-35.41,13.63a85.3,85.3,0,0,0-30,43c-19.27,6.4-34,19.08-49.68,31.42-10.75,8.3-20.74,16.92-25.34,30.27-5.53,8.64-9.21,19.29-5.66,29.3-.26.32-.52.63-.76,1a31.18,31.18,0,0,0-36,4.67c-8.5,8-6.23,20.95,2,27.76A192,192,0,0,0,118.43,266l-.5.6c-.77.88-1.57,1.75-2.4,2.58-1.32,1.35-2.74,2.55-4.16,3.79,2.94-2.57-.78.39-2.09,1.16-.89.53-1.82,1-2.74,1.48l-.39.2c-2,.66-4,1.35-6.11,1.86-1.08.26-2.17.46-3.25.7l-1.18.26c-2.13.26-4.29.39-6.44.5-4.79.24-9.58.22-14.38.16-7.8-.09-16.06,5.78-17.84,13.58-1.72,7.59,1,17.24,8.51,20.9a133.27,133.27,0,0,1,20.8,12.86c1.72,1.31,1.86,1.41.42.33l2.74,2.2q2,1.68,4.06,3.38c2.5,2.12,5,4.27,7.42,6.43A212.86,212.86,0,0,0,82.58,378.4c-3,8.61-5.3,17.91-4.61,27.08.37,4.88,1.43,9.67,2,14.52-.12-.67.11,2.67.12,3.26a50.32,50.32,0,0,1-.16,5.35c-.08-.06-.63,3.38-.79,4-.39,1.54-.87,3-1.39,4.54.1-.48-1.41,3-1.73,3.62-.91,1.64-2,3.17-2.89,4.81-6,10.81-5.62,23.69,3.45,32.74a28.22,28.22,0,0,0,19.44,7.78c-.15,1.57-.31,3.14-.48,4.7,0,.21,0,.41-.07.62-6.94-.49-14.73,2.38-17.85,8.94a70.6,70.6,0,0,1-4.07,7.06c-.12.11-.26.24-.43.42L70,511l-.47.49c-1,.66-2,1.36-3,2-1.3.78-2.63,1.42-4,2.11,2.8-1.44.44-.24-1.17.29-12.23,4-19.38,21.38-8.17,30.92a79.25,79.25,0,0,1,7.91,8l0,.06c.44.6.86,1.19,1.28,1.79,1.07,1.55,2.08,3.14,3.06,4.74,3.74,6.13,6.89,12.58,10.06,19,7,14.14,14.53,28.3,26.27,39.15A18.68,18.68,0,0,0,122,623.33c6.27-2.64,12-9.65,11.37-16.9-2.33-26.58-4.67-53.25-3.87-80,.75-25,8.75-51.87.33-76.24a12.63,12.63,0,0,0,.75-2.76q4.48-30.68,7.3-61.53c10.84,3.8,24.92-2.45,25.07-16.91a399.75,399.75,0,0,1,2.75-43.47l.32-2.59c0-.4.11-.79.17-1.19,3.47,6.54,11.88,10.17,18.88,9.23a18.49,18.49,0,0,0,16.05-18.17c.16-23.32-6.87-45.48-15.18-67a17.25,17.25,0,0,0,8.73,5.44c1.41.37,2.81.76,4.2,1.21.39.13,2.21.8,2.42.83.58.26,1.16.54,1.73.83a55,55,0,0,0,4.85,2.75,21.8,21.8,0,0,0,10.3,2.23l1.74,1.61c8,7.6,16.32,14.27,27,17.57,19.9,6.14,32.84-23.88,14.26-33.81l-.44-.26c-.1-.36-1.84-2.68-2.22-3.41-2.07-4-3.7-8.31-5.48-12.48l-9.18-21.51c0-.18,0-.35,0-.52,2.33-2.34,4.73-4.6,7.24-6.76q2.68-1.83,5.49-3.44a18.68,18.68,0,0,0,2.7.67,120.07,120.07,0,0,0,12.77,1.6,93.73,93.73,0,0,0,8.4,4.17,53.86,53.86,0,0,0,17.91,4.33c1.39,1.88,2.85,3.7,4.36,5.44,7.17,8.27,16.1,12.53,26,16.4,8.18,3.18,21.7.86,28.9-3.78,7.82-5,15.46-12.92,17.23-22.42q2.12-11.26,4.22-22.54c.26-1.39.54-2.79.83-4.2a98.77,98.77,0,0,0,12.52,28.52,202,202,0,0,0,14.15,23.41c5.56,7.9,16.43,12.37,25.31,6.64a18.9,18.9,0,0,0,6.64-25.31c-.66-1.24-1.31-2.48-1.94-3.73-.07-.13-.4-.82-.67-1.38-.26-.74-.92-2.44-1-2.71-.12-.42-.24-.86-.35-1.29a8.25,8.25,0,0,0-.08-1.47c.15-1,.38-3,.38-3a55.5,55.5,0,0,0,.93-11,107.84,107.84,0,0,0-2.52-16.25q7.5-3.72,15.18-7.09c1.15-.47,2.31-.91,3.46-1.36a154.19,154.19,0,0,0,11.68,27c6.8,12.37,25,11.64,31.95,0q7.28-12.15,13.45-24.88l6.92.26a24.77,24.77,0,0,0,4.84,4.61l7.91,5.75,4.5,3.28.62.44.2.19c1,.94,2,1.88,3,2.76.29.26.5.43.66.55a1.38,1.38,0,0,1,.08.17c.22.33.44.67.64,1,0,.27,0,.69,0,1.31-1.15,18.51,25.83,24.92,34.47,9.33,3.68-6.63,7.24-13.34,11-19.9.63-1.09,1.29-2.15,2-3.2-.19.34.38-.38,1-1.12a13.75,13.75,0,0,0,1.92-1.65A41.27,41.27,0,0,0,602,177c.23.59.49,1.17.77,1.76,1.07,2.18,2.09,4.4,3.17,6.58.5,1.13.74,1.67.75,1.66.31.77.62,1.54.91,2.32a64.47,64.47,0,0,1,2.1,6.94c.16.69.3,1.38.44,2.08,0,.13,0,.29,0,.53-.07.87.17,2.08.22,3.19,0,.15-.13.61-.27,1.4-.14.63-.3,1.26-.48,1.88-.4.6-.79,1.2-1.17,1.82s-.73,1-.87,1.2c-.43.53-.86,1.06-1.3,1.57-6.29,7.34-7.76,19.05,0,26.16s18.28,6.73,26.16,0a40.66,40.66,0,0,0,11-15.66c1.47-2.58,2.79-5.22,4-7.9a14.86,14.86,0,0,0,3.57-2.81,19.24,19.24,0,0,0,5.42-13.08v-4.42a41.12,41.12,0,0,0,5.86-2.24A58.83,58.83,0,0,0,669,207.4c9.14,15.43,26.06,26.63,44.29,26.87A49,49,0,0,0,740,227c6.22-3.82,12-9.33,17.74-14l15.15-12.21a32,32,0,0,0,14.54,7.48,60.26,60.26,0,0,1,5.86,1.61,81.58,81.58,0,0,1,8.14,4.89,18.93,18.93,0,0,0-2.23,3.6,101.19,101.19,0,0,1-7.71,13.11c-.87.94-1.68,2-2.55,2.91-1.93,2.06-4,4-6.07,5.88-9.6,8.55-9.37,26,0,34.65,10.24,9.41,24.4,9.12,34.64,0a102.4,102.4,0,0,0,19.41-23.34c.83.33,1.67.61,2.52.87,0,.83,0,1.67,0,2.51,0,.58,0,1.16-.08,1.74-.23,2.44-.19,2.31.13-.41.17,1.51-.78,3.67-1.15,5.08a21.93,21.93,0,0,0,1.92,15.6c-.24,1-.5,2-.75,3A107.32,107.32,0,0,0,837,294.79a71.16,71.16,0,0,0,1.51,21.56,18.87,18.87,0,0,0,.93,4c3.23,9.1,12.77,16.15,22.76,12.92,8.73-2.83,14.35-10.95,13.41-19.91,0-.31.07-.63.08-1a41.64,41.64,0,0,0,6.49,7.07l2.14,48.34c.46,10.41,7.24,21.18,18,23.63a27.15,27.15,0,0,0,2.82.46l-.47,1.67a21,21,0,0,0,7.07,21.69,32.34,32.34,0,0,0-4,14.87,27.2,27.2,0,0,0,9.74,21.06,35.83,35.83,0,0,0-2.89,8,29.38,29.38,0,0,0-.64,8.38,26.86,26.86,0,0,0-3.69,13.15,25.38,25.38,0,0,0,1.28,8.61c.29.83,2,3.63,2.94,5.65l-.13-.94a2.92,2.92,0,0,1,.3,1.34A3.13,3.13,0,0,1,915,497l-.36-1c0,.13,0,.26,0,.39l-.09-.67q-.74-2.07.09.69c-.06,1.33-.31,2.8-.34,3.61a106.92,106.92,0,0,0,.15,12c1.27,16.71,4.43,32.64,2.79,49.49-.06.63-.38,3.15-.43,3.69-.21,1.35-.41,2.71-.64,4.06-.77,4.44-1.69,8.85-2.69,13.24-1.86,8.18-4,16.27-6.21,24.37a21.06,21.06,0,0,0,12.16,24.77c10.13,4.28,20.11.07,26.22-8.59,13-18.38,26.61-36.46,38.84-55.34,6.42-9.9,13.35-22,14-34C999,523.38,992.55,514.46,983.34,510.57Z"
            />
            <path d="M541.62,16C567,21.78,591,31.78,614,43.78c32,2,62,14,92,27,2,1,5-1,7-1,45-11,78,27,97,62,40,4,65,42,77,78,19,3,38,6,55.5,11.5,0,0-12.94-2.77,0,0-.5.5-.5,1.5-1.5,1.5-1,1-3,1-4,1-4,1-6,5-9,7-15,16,1,39,14,51,26-2,53,11,65.5,33.5h0c-1.5-4.5-5.5-5.5-8.5-8.5a18.54,18.54,0,0,0-7-2c-4-1-8,1-12,2-3,2-7,3-10,6s-6,5-9,8c-7,8-11,17-18,25v2c5,6,10,10,13,17l3,3c1,1,0,3,1,4,10,18,12,41,5,61,0,2-1,4,0,5,5,6,8,12,12,18,2,3,2,7,3,11,3,17-14,26-29,27v3c8,23,37,23,56.5,19.5,0,.09-14.89,2.81,0,0-.5.5-.5.5-.5,1.5-1,3-3,5-5,7-8,17-18,33-28,50-2,4-3,7-5,11-3,5-5,9-9,13-15,14-29,28-42.5,42.5,0-.21,6.78-6.92,0,0-.5-53.5-.5-106.5-2.5-159.5-1-33-3-65-5.54-97.83l-1-15.67a10.4,10.4,0,0,1,0,2.16c-.85,13.32-16.36,21.57-27,25.84.33-.4,10.69-4.27,0,0,4.5-7.5.5-15.5.35-23.83-2.54-25.58-7.41-51-12.35-76.17l-1.62,6.38-11.38,44.62c-1.32-1.3,3.8-14.87,0,0-4.5-6.5-8.5-11.5-11.5-18.5-8-23-7-49,2.5-72.5-.34.21-6.5,18.32,0,0-4.5,2.5-8.5,5.5-12.5,7.5-14,7-28,14-44,17-6,1-14,0-16-7-1-2,0-5,1-7,6-9,10-17,16-26,4-6,6-13,10-19v-3c-11-13-30-12-44-6a79.65,79.65,0,0,0-17,15,46.74,46.74,0,0,1-41,11c-24-4-37-29-41.5-51.5-.33,2.25,3.64,15.29,0,0-3.5,32.5-32.5,56.5-64,61,0-.06,17.85-2.51,0,0,1.5-1.5,1.5-4.5,2.5-5.5,8-11,12-23,14-36,2-16-8-34-25-36-6,11-12,22-20,33-3,5-5,10-8.5,14.5-.1-.63,4.51-7.45,0,0-2.5-9.5-3.5-18.5-7.34-26.86L516,164.36c-10.65-3.58-17.65,9.42-21.65,17.42-4,10-6,20-8.51,30.5-4.51-7.45.36-2.17,0,0-3.5-3.5-5.51-9.5-8.51-14.5-8-11-14-22-20-33-17,2-27,20-25,36,2,15,9,28,16.51,41.5-17.86-2.51,0-.06,0,0-31.52-3.5-58.54-29.5-64.05-61-3.63,15.29.34,2.25,0,0-5.5,22.5-16.51,48.5-41.53,52.5-15,2-30-2-41-12a79.7,79.7,0,0,0-17-15c-14-6-33-7-44,6v3c4,6,6,13,10,19,6,9,10,17,16,26,1,2,2,5,1,7-2,7-10,8-16,7-21-4-39-14-56.55-24.5,6.51,18.32.35.21,0,0,8.51,29.5,14.51,66.5-9,91-3.8-14.87,1.32-1.3,0,0-4.51-17.5-8.51-34.5-13-51-4.94,25.2.54,2.13,0,0-5.51,27.5-10.51,56.5-13.51,85.5,0,5,0,9,1.5,14.5-10.7-4.27-.33-.4,0,0-12.51-5.5-27.52-13.5-27-28-.32,5.22-.1.72,0,0-1.5,38.5-6.51,77.5-7.51,116.5-1,52,0,104-1.5,156.5-6.78-6.92,0-.21,0,0-14.51-14.5-27.52-28.5-42.53-42.5-4-4-6-8-9-13-2-4-3-7-5-11-10-17-19-33-29-50-1-3-3-6-4.51-8.5,14.91,2.81.05.09,0,0,19.52,5.5,48.54,3.5,56.55-19.5v-3c-15-1-32-10-29-27,1-4,1-8,3-11,4-6,7-12,12-18,1-1,0-3,0-5-7-20-5-43,5-61,1-1,0-3,1-4l3-3c3-7,8-11,13-17v-2c-7-8-11-17-18-25-3-3-6-5-9-8s-7-4-10-6c-4-1-8-3-12-2a18.54,18.54,0,0,0-7,2c-3,3-6,5-8.51,8.5,7.46-13.19.15-.24,0,0,12.51-23.5,39.53-35.5,65.55-33.5,13-12,29-35,14-51-3-2-5-6-9-7-1,0-3,0-4-1l-1.5-1.5c13.12-2.81,0,0,0,0,19.52-2.5,36.53-8.5,55.54-11.5,2-1,2-3,2-6a48.75,48.75,0,0,0,3-7c0-1,1-2,2-3,0-1,0-3,1-4,13-27,35-56,67-57a7.58,7.58,0,0,0,4-2c15-29,37-57,71.06-63,11-1,21,1,31,3,19-8,37-17,58-21,1,0,3-2,4-2a107,107,0,0,1,25-3c3,0,5-1,8-2,23-12,47-23,71.88-27.15Z"
                style="fill:none;stroke:#000;stroke-miterlimit:10;stroke-width:19px" />
        </g>
        <g id="basic-glass-1-20">
            <path d="M930.51,553.39c33,2.89,35,23.89,35,23.89-6,26-35,14-35,14V553.39" style="fill:#5c3e00;stroke:#140400;stroke-miterlimit:10;stroke-width:19px"
            />
            <path d="M155.51,553.39c-36,1.89-33,20.89-33,20.89,1,27,33,13,33,13V553.39" style="fill:#5c3e00;stroke:#140400;stroke-miterlimit:10;stroke-width:19px"
            />
            <path d="M482.51,574.28c89-47,121,0,121,0v13h0c-85-40-121,0-121,0v-13" style="fill:#5c3e00;stroke:#140400;stroke-miterlimit:10;stroke-width:19px"
            />
            <rect x="155.51" y="498.28" width="327" height="166" rx="71.91" ry="71.91" style="fill:#5c3e00;stroke:#140400;stroke-miterlimit:10;stroke-width:19px"
            />
            <rect x="603.51" y="498.28" width="327" height="166" rx="71.91" ry="71.91" style="fill:#5c3e00;stroke:#140400;stroke-miterlimit:10;stroke-width:19px"
            />
        </g>
        <g id="basic-accessory-1-10">
            <path id="body-color" d="M793.3,1300.62a28,28,0,0,0-9.66,10.1c-6.73,12.18-3.06,27.13,7.72,35.46,13.13,10.14,30.63,9.17,46.19,7,6.29-.87,12.47-2.18,18.68-3.48,2.77-.58,5.54-1.15,8.32-1.64,1.49-.26,3-.49,4.48-.74a11.18,11.18,0,0,0,1.77-.47c4.94-.82,10.42-.7,15.25-1,5.47-.34,10.94-.57,16.41-.8,15.84-.66,31.93-1.38,47.65-3.92a28.32,28.32,0,0,0,14,1.59,32.53,32.53,0,0,0,6.52-1.58c8.26,3.07,17.51,3.26,26.53,4.14l30.67,3c13.22,1.29,24.51-12.2,24.5-24.5a744.24,744.24,0,0,0-4.31-79.4,772.65,772.65,0,0,0-28.85-142.7C1006.15,1059,991,1013,958.14,981.13c-13.2-12.8-36-7.14-40.95,10.81a277,277,0,0,0-9.54,96.16c.83,10.15,1.53,20.24,6.84,29.2,4.84,8.18,13.59,13.81,22.91,15.75a24.73,24.73,0,0,0-1.45,2.35c-16-2.07-30.75-1.35-46.76.88-11.75,1.63-23.52,3.54-35.14,5.91-15.55,3.17-36.19,8.64-49.75,19.39a33.75,33.75,0,0,0-10.24,8.23c-5.64,7-9.82,15.33-9.47,24.58a32.81,32.81,0,0,0,14.8,26.63,37.23,37.23,0,0,0,15.71,5.56l-.84.26c-8.71.33-17.24,1.76-25,6.32a32.93,32.93,0,0,0-6.31,4.8c-7.09,5.1-12.58,12-14.48,21.29C764.7,1277.47,775.25,1296.8,793.3,1300.62Zm162.48-232.8c.19.47.38.94.56,1.41l-.54.25C955.8,1068.93,955.79,1068.37,955.78,1067.82Z"
                style="fill:#fad2a6" />
            <path d="M795.58,1303.34c-31.6,12.44-13.6,45.44-13.6,45.44l270.5-3.5c2-151-59-327-59-327-29.5-47.5-60.5-47.5-60.5-47.5-48,46-21,146-21,146,29,37,63,6,63,6"
                style="fill:none;stroke:#140400;stroke-miterlimit:10;stroke-width:14px" />
            <path d="M807,1224.78c-47,0-39,48-39,48l14,27c71,8,176,0,176,0" style="fill:none;stroke:#140400;stroke-miterlimit:10;stroke-width:14px"
            />
            <path d="M933.48,1133.13c-53.5-8.35-142.5,24.65-142.5,24.65-21,41,0,65,0,65H958" style="fill:none;stroke:#140400;stroke-miterlimit:10;stroke-width:14px"
            />
            <path id="body-color-2" data-name="body-color" d="M340.56,1256.25c-1.9-9.29-7.39-16.19-14.48-21.29a33.17,33.17,0,0,0-6.3-4.8c-7.81-4.56-16.34-6-25-6.32l-.84-.26a37.33,37.33,0,0,0,15.71-5.56,32.8,32.8,0,0,0,14.79-26.63c.36-9.25-3.82-17.61-9.46-24.58a34,34,0,0,0-10.24-8.23c-13.57-10.75-34.2-16.22-49.75-19.39-11.62-2.37-23.39-4.28-35.14-5.91-16-2.23-30.79-3-46.76-.88a24.73,24.73,0,0,0-1.45-2.35c9.32-1.94,18.07-7.57,22.91-15.75,5.3-9,6-19,6.84-29.2a277.26,277.26,0,0,0-9.54-96.16c-5-18-27.75-23.61-40.95-10.81C118,1010,102.85,1056,89.79,1098.68A772.62,772.62,0,0,0,61,1241.38a741.63,741.63,0,0,0-4.31,79.4c0,12.3,11.28,25.79,24.5,24.5l30.67-3c9-.88,18.27-1.07,26.53-4.14a32.2,32.2,0,0,0,6.52,1.58,28.27,28.27,0,0,0,14-1.59c15.73,2.54,31.82,3.26,47.65,3.92,5.48.23,10.95.46,16.42.8,4.82.3,10.3.18,15.25,1a11,11,0,0,0,1.76.47c1.5.25,3,.48,4.48.74,2.79.49,5.56,1.06,8.33,1.64,6.21,1.3,12.39,2.61,18.67,3.48,15.57,2.15,33.07,3.12,46.19-7,10.79-8.33,14.46-23.28,7.73-35.46a28,28,0,0,0-9.66-10.1C333.75,1293.8,344.29,1274.47,340.56,1256.25ZM153.19,1066.48l-.54-.25.57-1.41Z"
                style="fill:#fad2a6" />
            <path d="M313.42,1303.34C345,1315.78,327,1348.78,327,1348.78l-270.5-3.5c-2-151,59-327,59-327,29.5-47.5,60.5-47.5,60.5-47.5,48,46,21,146,21,146-29,37-63,6-63,6"
                style="fill:none;stroke:#140400;stroke-miterlimit:10;stroke-width:14px" />
            <path d="M302,1228.78c47,0,39,48,39,48l-14,27c-71,8-176,0-176,0" style="fill:none;stroke:#140400;stroke-miterlimit:10;stroke-width:14px"
            />
            <path d="M175.51,1135.13c53.5-8.35,142.5,24.65,142.5,24.65,21,41,0,65,0,65H151" style="fill:none;stroke:#140400;stroke-miterlimit:10;stroke-width:14px"
            />
        </g>
    </g>
</svg>